<svg width="558" height="129" viewBox="0 0 558 129" fill="none" xmlns="http://www.w3.org/2000/svg">
<path fill-rule="evenodd" clip-rule="evenodd" d="M0.759003 126.228L0.759003 60.7464C0.759003 60.7464 31.694 90.6148 37.0199 89.7191C65.7605 84.8858 100.025 55.106 116.089 55.106C132.152 55.106 184.078 79.8878 206.909 79.8878C229.74 79.8878 273.387 9.93219 290.846 9.93219C308.305 9.93219 341.45 60.7464 357.589 60.7464C373.729 60.7464 423.802 40.6837 439.918 40.6837C456.034 40.6837 497.667 55.106 513.783 55.106C519.575 55.106 556.759 45.5285 556.759 45.5285V126.228H0.759003Z" fill="url(#paint0_linear_35_42)"/>
<path d="M0.759003 59.6308C0.759003 59.6308 25.607 88.6372 39.7059 88.6372C53.8047 88.6372 100.025 53.9838 116.089 53.9838C132.152 53.9838 184.078 78.7945 206.909 78.7945C229.74 78.7945 273.387 8.75751 290.846 8.75751C308.305 8.75751 341.45 59.6308 357.589 59.6308C373.729 59.6308 423.802 39.5447 439.918 39.5447C456.034 39.5447 497.667 53.9838 513.783 53.9838C529.899 53.9838 556.759 44.3952 556.759 44.3952" stroke="#6DABFF" stroke-width="2"/>
<rect opacity="0.296012" x="281.759" width="20" height="129" rx="10" fill="#6DABFF"/>
<ellipse cx="291.759" cy="10.6612" rx="10" ry="10.6612" fill="white"/>
<ellipse cx="291.759" cy="10.6612" rx="6" ry="6.39669" fill="#6DABFF"/>
<defs>
<linearGradient id="paint0_linear_35_42" x1="6.35576" y1="9.93219" x2="6.35576" y2="123.886" gradientUnits="userSpaceOnUse">
<stop stop-color="#6CABFF"/>
<stop offset="1" stop-color="white" stop-opacity="0.01"/>
</linearGradient>
</defs>
</svg>
